<svg fill="none" height="57" viewBox="0 0 64 57" width="64" xmlns="http://www.w3.org/2000/svg" xmlns:xlink="http://www.w3.org/1999/xlink"><clipPath id="a"><path d="m0 0h64v56.2424h-64z"/></clipPath><g clip-path="url(#a)"><path d="m63.4901 55.4381c-.1119.1563-.2248.3115-.3366.4655-.3214.2214-.7026.3396-1.0929.3388h-60.12121c-.37286.0003-.73783-.1074-1.050693-.3103-.103833-.1369-.206495-.2749-.310328-.413l.103833-.057 30.435898-16.8704c.2701-.1494.5736-.228.8822-.2284s.6123.0774.8827.2261l30.5044 16.7917z" fill="#dc1b50"/><path d="m62.0606 19.9643-26.3778-15.23337c-1.1095-.64071-2.368-.97833-3.6491-.97896-1.2812-.00063-2.54.33575-3.6501.97537l-26.44421 15.23696c-.51413.0008-1.007001.2053-1.37055.5689-.36355.3635-.56811268.8564-.56884 1.3705v32.3993c.00059903.5142.20512 1.0071.568697 1.3707s.856523.5681 1.370693.5687h60.12121c.5141-.0009 1.0069-.2055 1.3704-.569s.5681-.8563.569-1.3704v-32.3993c-.0007-.5141-.2053-1.007-.5688-1.3705-.3636-.3636-.8565-.5681-1.3706-.5689zm1.7112 34.3387c-.0011.4535-.1817.8881-.5024 1.2088s-.7553.5013-1.2088.5025h-60.12121c-.45359-.0009-.88838-.1814-1.209116-.5022-.320741-.3207-.501294-.7555-.50211-1.2091v-32.3993c.000552-.4536.181019-.8886.501817-1.2094.320799-.3208.755739-.5012 1.209409-.5018l26.44421-15.237c1.1101-.63962 2.3689-.976 3.6501-.97537 1.2811.00063 2.5396.33825 3.6491.97897l26.3778 15.2334c.4537.0006.8886.181 1.2094.5018s.5013.7558.5018 1.2094z" fill="#3f3d56"/><path d="m32.0342 38.2951c-.1987.0006-.3961-.0325-.5837-.098l-.0345-.0122-.007-.0767c-.0215.0106-.0432.0207-.0649.0303l-.023.0101-.0229-.0101c-.0481-.0211-.0958-.045-.1419-.071l-21.003-11.8021v-24.09785c.0006-.55955.2231-1.096.6188-1.491663.3957-.395662.9321-.6182216 1.4917-.6188496h39.4724c.5595.000628 1.096.2231876 1.4916.6188496.3957.395663.6182.932113.6189 1.491663v24.12865l-.0291.0164-20.9055 11.755c-.2684.1496-.5707.2279-.8779.2275z" fill="#fff"/><path d="m32.0342 38.3521c-.2051.0007-.4089-.0335-.6026-.1012l-.0691-.0243-.0029-.0326-.0384.0169-.0459-.0202c-.0498-.0219-.0992-.0466-.147-.0735l-21.032-11.8184v-24.13124c.0006-.57467.2292-1.12562.6355-1.531978.4064-.406355.9573-.63493161 1.532-.635582h39.4724c.5747.0006528 1.1256.229229 1.532.635584.4063.406356.6349.957306.6355 1.531976v24.16194l-20.9637 11.7878c-.2769.1544-.5887.2353-.9058.2348zm-.4579-.2939c.4195.1204.8695.0701 1.252-.1399l20.8473-11.7222v-24.02854c-.0006-.51418-.2051-1.00714-.5687-1.370722-.3636-.363581-.8565-.568095-1.3707-.568674h-39.4724c-.5142.000576-1.0071.205091-1.3707.568673-.3636.363583-.5681.856543-.5687 1.370723v23.99764l1.3678.7682 19.548 10.985c.0266.015.0536.0291.081.0423.0274-.0132.0544-.0273.0809-.0423l.1537-.0865z" fill="#3f3d56"/><path d="m63.4946 20.8063-8.2789 4.6545-1.426.802-20.9056 11.755c-.2598.1449-.5524.2207-.8499.2202-.1922.0006-.3831-.0314-.5647-.0947-.0505-.0161-.1-.0352-.1483-.057-.0467-.0206-.0924-.0434-.1369-.0685l-19.5479-10.9849-1.4261-.8009-9.687788-5.444c-.026343-.0151-.045666-.04-.053779-.0692-.008113-.0293-.004363-.0606.010441-.0871.014844-.0263.039518-.0456.068603-.0537.029085-.0082.060206-.0044.086533.0104l9.57599 5.3812 1.4261.8009 19.6597 11.0477c.0652.0366.1331.0682.2031.0947.0297.0114.0605.0216.0913.0308.1952.0599.4006.0797.6037.0581.2032-.0215.3998-.084.5781-.1836l21.0174-11.8166 1.426-.802 8.1671-4.5918c.013-.0074.0274-.0121.0422-.0139.0149-.0018.0299-.0006.0444.0034.0144.004.0278.0109.0396.0201s.0216.0207.029.0337c.0073.0131.012.0274.0138.0423.0018.0148.0006.0299-.0034.0443s-.0108.0279-.0201.0396c-.0092.0118-.0207.0216-.0337.029z" fill="#3f3d56"/><g fill="#dc1b50"><path d="m31.7054 21.4743-.7894.0207-.0317-.4267.1278.0536.3087-.0311-.0317-.395-.8528.0103-.2349-.308.0126-.1624-1.0987-.9893-.2672.2125 1.5669 1.9187.2234.0754v.106h-.2983l.0749.2355 1.929.0846z"/><path d="m32.6095 21.1063.1198-.3034.2119-.1924v-.1405l.1319-.0863v-1.0532l-.1319-.0553-.0639-.3282h-.1923l-.1233.3328-.148.1319-1.1154.6046v.5977l.372.4923z"/><path d="m33.0731 20.7286v.7779h.2879l-.0426-.4957.2245.0811v.3513l.2327-.0213-.0069-1.0382-.5644.2188.0081.1261z"/><path d="m37.7443 23.0452-.3789-.649-.3409-.0161-.1388 1.1776-.6513-.0484-.1819-.11-.0225-.467.3449.0703.2902-.2839-.619-.372h-.7273l-.5228.7411h-.2131v-.2332l-.6259.0472-.991 1.1298-.5258.0063-.5862.4048-.0431 1.7477-.3513.3415v.3092l1.7056-.5862 1.382-.0547.5125 1.1252 1.5709.0547 1.5121-1.4235.3738-.8511-.1555-.6294-.5735-.4917z"/><path d="m35.2647 28.192.5557.0605.4491-.2471.0081-.3374-.4895-.0541z"/><path d="m37.5248 28.317v.2631l.5799-.0892 1.4068-.8626.3985-.2615.4249-.1883.4273-.2418-.1572-.281-.2315.046-.0069-.5217-.4244.0254-.0536.8159-.3737.2551-.6921.0962-1.1097.7889z"/><path d="m36.2459 20.834-.3581.0098.027-.372-.3403-.2027-.4848.4854.3253.3996.7025.1014.3945.2073.0109.1923h-.2557l.0104.395.8534-.0547.3092-.3299.33-.0317v.6075h.5758v-.2459h-.2879l-.0536-.7399-1.3739-.6236z"/><path d="m26.0121 19.0644.1331.3622.4854-.1802.0535-.5021-.3909-.076z"/><path d="m33.6927 21.8267.1676.0524.0478-.1681h-.2154z"/><path d="m32.9412 21.8791h-.2563v.1423h.2563z"/><path d="m33.2245 21.8791-.1514.1422v.1244l.2361-.0247v-.0997h.1595v-.1243l.1157-.0179v-.1221h-.2557z"/><path d="m33.7163 22.0213v.2246h.2488v-.1128h.2551v-.1313l.1796.0195-.0236-.2268-.2919.0443-.0248.1468-.3265.0357z"/><path d="m31.9997 4c-3.7349 0-7.13 1.47356-9.6429 3.86558l-.0012.00058v.00058c-.1589.15144-.315.30634-.467.46469-1.8691 1.95377-3.178 4.44487-3.6698 7.21637-.0161.0927-.0351.1848-.0495.2781-.1111.7089-.1693 1.4344-.1693 2.1738 0 1.9008.3824 3.7142 1.0716 5.3685 2.1099 5.0622 7.1093 8.6318 12.9281 8.6318 7.7197 0 14.0003-6.2801 14.0003-14.0003 0-7.7196-6.2806-13.9997-14.0003-13.9997zm-11.3486 7.984.1319.0552.0161.2563-.2994-.0167c.0501-.0991.0996-.1975.1514-.2948zm-.4969 1.5104.2781-.2401v-.2022l-.2188-.16c.0467-.1072.0944-.2125.144-.3179l.5493.3662v.3196l.2833.2079v.224l-.1445.1382-.3357-.0271-.0645-.1007-.5281-.0375zm11.8455 17.3539c-6.1292 0-11.2662-4.3153-12.5417-10.0656l.6622-.6322 1.3181-1.8848-.2557-.118-1.3693.2879-.3524-.175-.3017-.569c.0074-.3149.0236-.6276.0535-.9368l.3369.4094.0351.5361.33.3311.6714-.0432 1.4021-1.0152.4394-.2879-.0081-.3519-.4681-.0604s-1.6417-.7739-1.6417-.8079c0-.0346.0103-.664.0103-.664h.3622l.0536.459.7607.437.8695.0427 1.887.3086.4417.2776v.4318l-.0565.5874.9669 1.5916.3121.072.3115-.4521.1716-1.2869.3225-.6934.5199-.1934.9173.0875 1.1506 1.0227v1.4707l1.519 1.4551.0801-.2551-1.2312-1.7592.1279-.5125.6506.7371.3628.038.4774-.3179-.0795-.4796-.7883-.6346-.0317-.5758.2246-.3035.3996.1278-.0322.2718.228.3513.2033-.144-.1111-.4157 1.1182-.4002.4906-.4094-.0742-.7417-.9749-1.0227-.0162-.8315h.4319l1.3435 1.0232.3777-.1013-.2511-.3305-.7198-.4365.0427-.6501.8522.0011.0697-.805-.3248-.4284.1923-.2073.4152.4163.1324-.1762-.5326-.6081-1.3267-.1595-.1762-.3518.3835-.54361.304.22341.911.0801 1.1517-.76763.1917.24012-.2562.39963v.39968l1.0549.8631.3363-.1756-.1284-.5758-.7515-.70313.9916-.0645v-.28791l.4797-.09617-.368-.25337.015-.19463 1.0077.16296.1917-.16296-1.3578-.57526-4.9568-.25567-.4635-.23436-.7359-.10941-.5534-.01843-.5016.50674-.2119-.01613-.6679-.49522h-1.9659l-.9122-.54416-.4532.02879c1.993-1.26741 4.3539-2.00621 6.8853-2.00621 7.0845 0 12.8486 5.76353 12.8486 12.84863s-5.7641 12.848-12.8486 12.848z"/></g></g></svg>